<svg width="40" height="40" viewBox="0 0 40 40" fill="none" xmlns="http://www.w3.org/2000/svg">
<g id="encrypted">
<mask id="mask0_21_195" style="mask-type:alpha" maskUnits="userSpaceOnUse" x="0" y="0" width="40" height="40">
<rect id="Bounding box" width="40" height="40" fill="#D9D9D9"/>
</mask>
<g mask="url(#mask0_21_195)">
<path id="encrypted_2" d="M17.7503 25H22.2503L21.2366 19.1804C21.7921 18.9213 22.2342 18.5417 22.5628 18.0417C22.8914 17.5417 23.0557 16.9907 23.0557 16.3888C23.0557 15.5463 22.7571 14.8264 22.1599 14.2292C21.5627 13.6319 20.8428 13.3333 20.0003 13.3333C19.1578 13.3333 18.438 13.6319 17.8407 14.2292C17.2435 14.8264 16.9449 15.5463 16.9449 16.3888C16.9449 16.9907 17.1092 17.5417 17.4378 18.0417C17.7664 18.5417 18.2085 18.9213 18.7641 19.1804L17.7503 25ZM20.0003 36.6388C16.1206 35.6665 12.9285 33.4235 10.4241 29.9096C7.91935 26.3957 6.66699 22.5276 6.66699 18.3054V8.30542L20.0003 3.30542L33.3337 8.30542V18.3054C33.3337 22.5276 32.0813 26.3957 29.5766 29.9096C27.0721 33.4235 23.88 35.6665 20.0003 36.6388ZM20.0003 33.75C23.0928 32.7408 25.6252 30.801 27.5974 27.9304C29.5696 25.0601 30.5557 21.8518 30.5557 18.3054V10.2363L20.0003 6.26375L9.44491 10.2363V18.3054C9.44491 21.8518 10.431 25.0601 12.4032 27.9304C14.3755 30.801 16.9078 32.7408 20.0003 33.75Z" fill="#EDF2FC"/>
</g>
</g>
</svg>
