<svg width="24" height="24" viewBox="0 0 24 24" fill="none" xmlns="http://www.w3.org/2000/svg">
<g id="Linkedin">
<path id="Vector" d="M19.8184 13.6838V19.1999C19.8184 19.3354 19.7023 19.4516 19.5668 19.4516H16.7216C16.5861 19.4516 16.47 19.3354 16.47 19.1999V14.0709C16.47 12.7161 15.9861 11.787 14.7668 11.787C13.8377 11.787 13.2958 12.4064 13.0442 13.0064C12.9474 13.2193 12.9281 13.529 12.9281 13.8193V19.1999C12.9281 19.3354 12.8119 19.4516 12.6764 19.4516H9.85064C9.71516 19.4516 9.59903 19.3354 9.59903 19.1999C9.59903 17.8258 9.63774 11.187 9.59903 9.63866C9.59903 9.50317 9.71516 9.38704 9.85064 9.38704H12.6958C12.8313 9.38704 12.9474 9.50317 12.9474 9.63866V10.8193C12.9474 10.8387 12.9281 10.8387 12.9281 10.858H12.9474V10.8193C13.3926 10.1419 14.1861 9.15479 15.9668 9.15479C18.1732 9.15479 19.8184 10.6064 19.8184 13.6838ZM4.64419 19.4709H7.48935C7.62484 19.4709 7.74097 19.3548 7.74097 19.2193V9.63866C7.74097 9.50317 7.62484 9.38704 7.48935 9.38704H4.64419C4.50871 9.38704 4.39258 9.50317 4.39258 9.63866V19.2193C4.41193 19.3548 4.50871 19.4709 4.64419 19.4709Z" fill="#EDF2FC"/>
<path id="Vector_2" d="M5.97969 8.12881C6.9738 8.12881 7.77969 7.32292 7.77969 6.32881C7.77969 5.3347 6.9738 4.52881 5.97969 4.52881C4.98557 4.52881 4.17969 5.3347 4.17969 6.32881C4.17969 7.32292 4.98557 8.12881 5.97969 8.12881Z" fill="#EDF2FC"/>
</g>
</svg>
