<svg width="20" height="20" viewBox="0 0 20 20" fill="none" xmlns="http://www.w3.org/2000/svg">
<g id="Icon / Facebook">
<path id="Vector" d="M13.7507 5H11.2507C10.7904 5 10.4173 5.3731 10.4173 5.83333V8.33333H13.7507C13.8454 8.33123 13.9353 8.37533 13.9917 8.45158C14.048 8.52783 14.0638 8.62667 14.034 8.71667L13.4173 10.55C13.3605 10.7182 13.2032 10.832 13.0257 10.8333H10.4173V17.0833C10.4173 17.3134 10.2307 17.5 10.0007 17.5H7.91732C7.6872 17.5 7.50065 17.3134 7.50065 17.0833V10.8333H6.25065C6.02053 10.8333 5.83398 10.6467 5.83398 10.4167V8.75C5.83398 8.51992 6.02053 8.33333 6.25065 8.33333H7.50065V5.83333C7.50065 3.99238 8.99307 2.5 10.834 2.5H13.7507C13.9807 2.5 14.1673 2.68655 14.1673 2.91667V4.58333C14.1673 4.81345 13.9807 5 13.7507 5Z" fill="#EDF2FC"/>
</g>
</svg>
