<svg width="637" height="648" viewBox="0 0 637 648" fill="none" xmlns="http://www.w3.org/2000/svg">
<rect width="170" height="170" rx="24" transform="matrix(0.975342 -0.220697 0 1 80 328.519)" fill="#1860D9"/>
<rect width="40" height="40" rx="20" transform="matrix(0.975342 -0.220697 0 1 103.408 347.222)" fill="#BACFF4"/>
<path d="M118.112 364.962L120.624 364.393V370.393C120.624 371.793 121.363 371.909 122.266 370.655L128.418 362.096C129.174 361.05 128.857 360.397 127.711 360.656L125.2 361.224V355.224C125.2 353.824 124.46 353.709 123.558 354.963L117.405 363.522C116.657 364.574 116.974 365.219 118.112 364.962Z" stroke="#05132B" stroke-width="2" stroke-miterlimit="10" stroke-linecap="round" stroke-linejoin="round"/>
<path d="M111.505 414.935V432.39L108.928 432.973V418.16L108.828 418.183L104.755 421.832V419.309L109.003 415.502L111.505 414.935ZM121.1 430.508C119.787 430.8 118.665 430.699 117.734 430.205C116.803 429.711 116.091 428.846 115.597 427.612C115.104 426.377 114.858 424.81 114.858 422.912C114.858 421.02 115.104 419.348 115.597 417.896C116.096 416.442 116.811 415.257 117.742 414.342C118.679 413.426 119.798 412.82 121.1 412.525C122.403 412.231 123.519 412.333 124.45 412.833C125.381 413.327 126.093 414.188 126.587 415.418C127.085 416.64 127.335 418.197 127.335 420.089C127.335 421.993 127.088 423.673 126.595 425.132C126.102 426.584 125.39 427.771 124.459 428.692C123.528 429.607 122.408 430.212 121.1 430.508ZM121.1 428.233C122.253 427.972 123.154 427.192 123.802 425.891C124.456 424.59 124.783 422.848 124.783 420.667C124.783 419.218 124.633 418.027 124.334 417.095C124.04 416.156 123.616 415.49 123.062 415.099C122.513 414.7 121.86 414.587 121.1 414.758C119.953 415.018 119.053 415.801 118.399 417.108C117.745 418.415 117.415 420.158 117.41 422.335C117.41 423.79 117.556 424.986 117.85 425.926C118.149 426.858 118.573 427.521 119.122 427.913C119.671 428.301 120.33 428.407 121.1 428.233ZM131.342 414.81L134.16 419.269L137.003 413.529L139.721 412.914L135.74 420.361L139.755 425.998L137.036 426.613L134.16 422.371L131.292 427.912L128.566 428.529L132.539 421.085L128.616 415.427L131.342 414.81ZM152.672 409.984V412.029L145.457 413.662V411.616L152.672 409.984ZM147.435 424.26V409.652C147.435 408.833 147.61 408.115 147.959 407.496C148.308 406.872 148.771 406.361 149.347 405.963C149.923 405.56 150.55 405.282 151.226 405.129C151.725 405.016 152.151 404.962 152.506 404.967C152.861 404.967 153.124 404.981 153.296 405.01L152.714 407.204C152.597 407.197 152.448 407.191 152.265 407.187C152.082 407.177 151.86 407.202 151.6 407.26C150.996 407.397 150.564 407.648 150.303 408.014C150.048 408.379 149.921 408.851 149.921 409.43V423.697L147.435 424.26ZM157.627 422.243C156.818 422.426 156.087 422.438 155.433 422.279C154.779 422.115 154.261 421.78 153.878 421.276C153.502 420.77 153.313 420.089 153.313 419.231C153.313 418.492 153.452 417.853 153.729 417.313C154.006 416.773 154.38 416.31 154.851 415.925C155.322 415.54 155.849 415.211 156.43 414.937C157.012 414.664 157.605 414.421 158.209 414.211C158.974 413.947 159.595 413.733 160.071 413.568C160.548 413.398 160.894 413.22 161.11 413.035C161.326 412.849 161.435 412.603 161.435 412.296V412.237C161.435 411.492 161.23 410.962 160.819 410.646C160.415 410.328 159.811 410.26 159.007 410.442C158.17 410.632 157.511 410.971 157.029 411.461C156.552 411.944 156.223 412.436 156.04 412.938L153.704 412.921C153.981 412.063 154.385 411.329 154.917 410.72C155.455 410.104 156.073 409.606 156.771 409.227C157.469 408.841 158.204 408.562 158.974 408.387C159.484 408.272 160.024 408.212 160.595 408.208C161.171 408.197 161.709 408.297 162.208 408.508C162.712 408.718 163.125 409.087 163.446 409.617C163.768 410.141 163.928 410.88 163.928 411.834V420.528L161.501 421.077V419.287L161.401 419.31C161.241 419.676 161 420.054 160.678 420.445C160.357 420.836 159.944 421.193 159.44 421.518C158.935 421.842 158.331 422.084 157.627 422.243ZM158.168 420.075C158.855 419.92 159.442 419.648 159.93 419.259C160.423 418.869 160.797 418.421 161.052 417.914C161.313 417.401 161.443 416.885 161.443 416.368V414.681C161.354 414.792 161.182 414.916 160.927 415.053C160.678 415.184 160.393 415.313 160.071 415.443C159.75 415.567 159.437 415.686 159.132 415.8C158.827 415.909 158.572 416.001 158.367 416.076C157.885 416.247 157.445 416.452 157.046 416.69C156.652 416.927 156.336 417.211 156.098 417.544C155.865 417.869 155.749 418.259 155.749 418.714C155.749 419.344 155.976 419.77 156.43 419.991C156.885 420.207 157.464 420.235 158.168 420.075ZM175.87 407.931L173.618 408.849C173.523 408.575 173.374 408.328 173.169 408.107C172.969 407.885 172.698 407.728 172.354 407.635C172.01 407.543 171.581 407.555 171.066 407.671C170.362 407.83 169.774 408.125 169.303 408.556C168.832 408.98 168.597 409.446 168.597 409.951C168.597 410.389 168.755 410.705 169.071 410.901C169.386 411.097 169.896 411.2 170.6 411.211L172.628 411.229C173.803 411.242 174.679 411.473 175.255 411.922C175.831 412.371 176.12 413.059 176.12 413.985C176.12 414.769 175.898 415.518 175.455 416.232C175.017 416.939 174.404 417.555 173.618 418.079C172.836 418.603 171.93 418.981 170.899 419.214C169.47 419.538 168.303 419.489 167.4 419.069C166.496 418.643 165.942 417.873 165.737 416.76L168.14 415.842C168.289 416.45 168.597 416.866 169.062 417.09C169.528 417.309 170.135 417.334 170.883 417.164C171.697 416.98 172.348 416.659 172.836 416.202C173.324 415.74 173.568 415.256 173.568 414.75C173.568 414.341 173.418 414.031 173.119 413.82C172.825 413.608 172.373 413.5 171.764 413.496L169.603 413.499C168.411 413.491 167.53 413.247 166.959 412.768C166.394 412.288 166.111 411.582 166.111 410.65C166.111 409.877 166.322 409.154 166.743 408.479C167.164 407.804 167.746 407.221 168.489 406.729C169.231 406.231 170.082 405.874 171.041 405.657C172.421 405.345 173.507 405.406 174.299 405.84C175.092 406.269 175.615 406.966 175.87 407.931ZM183.876 402.923V404.968L176.902 406.547V404.501L183.876 402.923ZM178.772 400.942L181.258 400.379V412.763C181.258 413.257 181.33 413.613 181.474 413.83C181.618 414.042 181.804 414.168 182.031 414.207C182.264 414.24 182.516 414.225 182.787 414.164C182.987 414.119 183.161 414.065 183.311 414.003C183.461 413.94 183.577 413.891 183.66 413.855L184.109 415.859C183.965 415.948 183.76 416.052 183.494 416.169C183.228 416.291 182.895 416.401 182.496 416.497C181.842 416.656 181.233 416.675 180.668 416.552C180.102 416.43 179.645 416.147 179.296 415.704C178.947 415.26 178.772 414.643 178.772 413.853V400.942ZM191.055 414.654C189.797 414.938 188.714 414.908 187.805 414.562C186.901 414.21 186.203 413.587 185.71 412.693C185.222 411.792 184.979 410.662 184.979 409.304C184.979 407.963 185.222 406.726 185.71 405.593C186.203 404.459 186.89 403.505 187.772 402.732C188.658 401.957 189.695 401.436 190.88 401.168C191.601 401.005 192.299 400.969 192.975 401.06C193.651 401.151 194.258 401.398 194.796 401.799C195.333 402.2 195.757 402.783 196.067 403.548C196.378 404.307 196.533 405.281 196.533 406.468V407.372L186.383 409.668V407.759L194.097 406.014C194.097 405.343 193.964 404.779 193.698 404.323C193.432 403.86 193.058 403.533 192.576 403.341C192.1 403.147 191.54 403.124 190.897 403.269C190.199 403.427 189.589 403.741 189.068 404.211C188.553 404.674 188.154 405.219 187.871 405.846C187.594 406.465 187.456 407.102 187.456 407.755V409.247C187.456 410.122 187.605 410.832 187.905 411.378C188.209 411.923 188.633 412.295 189.176 412.496C189.719 412.692 190.354 412.707 191.08 412.543C191.551 412.436 191.98 412.271 192.368 412.047C192.756 411.817 193.092 411.531 193.374 411.189C193.657 410.846 193.873 410.454 194.023 410.011L196.375 409.913C196.187 410.666 195.849 411.364 195.361 412.009C194.879 412.646 194.272 413.196 193.54 413.657C192.815 414.111 191.986 414.443 191.055 414.654ZM198.354 412.738V399.647L200.757 399.103V401.183L200.89 401.153C201.122 400.396 201.533 399.749 202.12 399.212C202.713 398.669 203.383 398.313 204.132 398.144C204.287 398.109 204.47 398.073 204.68 398.037C204.896 397.999 205.065 397.975 205.187 397.964V400.402C205.088 400.396 204.91 400.405 204.655 400.429C204.4 400.446 204.145 400.484 203.891 400.542C203.303 400.675 202.779 400.921 202.319 401.281C201.865 401.634 201.505 402.065 201.239 402.574C200.973 403.077 200.84 403.613 200.84 404.181V412.175L198.354 412.738ZM111.039 448.404V450.45L104.065 452.028V449.982L111.039 448.404ZM105.935 446.423L108.421 445.86V458.244C108.421 458.738 108.493 459.094 108.637 459.312C108.781 459.523 108.967 459.649 109.194 459.688C109.427 459.721 109.679 459.706 109.95 459.645C110.15 459.6 110.324 459.546 110.474 459.484C110.624 459.422 110.74 459.373 110.823 459.337L111.272 461.34C111.128 461.43 110.923 461.533 110.657 461.65C110.391 461.773 110.058 461.882 109.659 461.978C109.005 462.137 108.396 462.156 107.83 462.034C107.265 461.912 106.808 461.629 106.459 461.185C106.11 460.741 105.935 460.125 105.935 459.335V446.423ZM115.612 452.688V460.46L113.127 461.023V443.568L115.579 443.013V449.508L115.737 449.472C116.036 448.7 116.493 448.037 117.108 447.483C117.723 446.929 118.527 446.54 119.519 446.315C120.394 446.117 121.159 446.129 121.813 446.35C122.473 446.57 122.982 447.006 123.343 447.657C123.708 448.302 123.891 449.169 123.891 450.26V458.587L121.406 459.149V451.13C121.406 450.169 121.165 449.48 120.683 449.06C120.201 448.635 119.53 448.52 118.671 448.714C118.084 448.847 117.557 449.094 117.092 449.455C116.632 449.815 116.269 450.272 116.003 450.827C115.742 451.374 115.612 451.995 115.612 452.688ZM131.775 457.067C130.517 457.352 129.433 457.322 128.524 456.976C127.621 456.624 126.923 456.001 126.43 455.106C125.942 454.205 125.698 453.076 125.698 451.718C125.698 450.377 125.942 449.14 126.43 448.007C126.923 446.873 127.61 445.919 128.491 445.146C129.378 444.371 130.414 443.85 131.6 443.581C132.32 443.418 133.019 443.383 133.695 443.474C134.371 443.565 134.978 443.811 135.515 444.213C136.053 444.614 136.477 445.197 136.787 445.962C137.097 446.721 137.253 447.694 137.253 448.882V449.785L127.103 452.082V450.173L134.817 448.427C134.817 447.757 134.684 447.193 134.418 446.736C134.152 446.274 133.778 445.947 133.296 445.754C132.819 445.561 132.26 445.537 131.617 445.683C130.918 445.841 130.309 446.155 129.788 446.625C129.273 447.088 128.874 447.633 128.591 448.259C128.314 448.879 128.175 449.515 128.175 450.169V451.66C128.175 452.535 128.325 453.246 128.624 453.792C128.929 454.336 129.353 454.709 129.896 454.91C130.439 455.105 131.074 455.121 131.8 454.957C132.271 454.85 132.7 454.685 133.088 454.461C133.476 454.231 133.811 453.945 134.094 453.602C134.376 453.26 134.593 452.867 134.742 452.424L137.095 452.327C136.906 453.08 136.568 453.778 136.081 454.423C135.598 455.06 134.992 455.609 134.26 456.07C133.534 456.524 132.706 456.857 131.775 457.067ZM141.559 446.816V454.589L139.074 455.152V442.061L141.46 441.521V443.652L141.618 443.616C141.911 442.856 142.371 442.195 142.998 441.633C143.629 441.07 144.425 440.68 145.383 440.463C146.253 440.266 147.015 440.281 147.669 440.508C148.323 440.729 148.83 441.166 149.19 441.817C149.551 442.468 149.731 443.334 149.731 444.414V452.74L147.245 453.303V445.283C147.245 444.334 147.004 443.647 146.522 443.222C146.04 442.791 145.378 442.671 144.535 442.862C143.959 442.992 143.446 443.236 142.998 443.593C142.554 443.949 142.202 444.404 141.942 444.957C141.687 445.504 141.559 446.123 141.559 446.816ZM162.765 450.055C161.568 450.326 160.523 450.281 159.631 449.921C158.739 449.56 158.046 448.93 157.553 448.03C157.059 447.13 156.813 446.004 156.813 444.652C156.813 443.294 157.059 442.051 157.553 440.922C158.046 439.793 158.739 438.847 159.631 438.082C160.523 437.318 161.568 436.8 162.765 436.53C163.962 436.259 165.006 436.304 165.898 436.664C166.791 437.025 167.483 437.658 167.977 438.563C168.47 439.469 168.716 440.6 168.716 441.958C168.716 443.311 168.47 444.548 167.977 445.671C167.483 446.794 166.791 447.738 165.898 448.502C165.006 449.267 163.962 449.784 162.765 450.055ZM162.773 447.914C163.549 447.739 164.192 447.383 164.701 446.847C165.211 446.311 165.588 445.666 165.832 444.912C166.081 444.157 166.206 443.359 166.206 442.518C166.206 441.683 166.081 440.944 165.832 440.301C165.588 439.652 165.211 439.172 164.701 438.861C164.192 438.55 163.549 438.483 162.773 438.658C161.992 438.835 161.343 439.195 160.828 439.738C160.318 440.279 159.938 440.93 159.689 441.691C159.445 442.445 159.323 443.24 159.323 444.075C159.323 444.916 159.445 445.659 159.689 446.302C159.938 446.945 160.318 447.418 160.828 447.724C161.343 448.027 161.992 448.091 162.773 447.914ZM176.514 433.589V435.634L169.54 437.212V435.167L176.514 433.589ZM171.411 431.607L173.896 431.045V443.428C173.896 443.923 173.968 444.279 174.112 444.496C174.256 444.708 174.442 444.833 174.669 444.873C174.902 444.905 175.154 444.891 175.426 444.829C175.625 444.784 175.8 444.731 175.949 444.668C176.099 444.606 176.215 444.557 176.298 444.521L176.747 446.525C176.603 446.614 176.398 446.717 176.132 446.834C175.866 446.957 175.534 447.066 175.135 447.162C174.481 447.322 173.871 447.34 173.306 447.218C172.741 447.096 172.283 446.813 171.934 446.369C171.585 445.926 171.411 445.309 171.411 444.519V431.607ZM181.087 437.872V445.645L178.602 446.207V428.753L181.054 428.198V434.692L181.212 434.656C181.511 433.884 181.968 433.221 182.584 432.667C183.199 432.113 184.002 431.724 184.994 431.5C185.87 431.301 186.635 431.313 187.288 431.534C187.948 431.754 188.458 432.19 188.818 432.842C189.184 433.486 189.367 434.354 189.367 435.445V443.772L186.881 444.334V436.314C186.881 435.354 186.64 434.664 186.158 434.245C185.676 433.82 185.005 433.704 184.146 433.899C183.559 434.032 183.032 434.279 182.567 434.64C182.107 434.999 181.744 435.457 181.478 436.011C181.218 436.559 181.087 437.179 181.087 437.872ZM197.25 442.252C195.992 442.537 194.909 442.506 194 442.161C193.096 441.808 192.398 441.185 191.905 440.291C191.417 439.39 191.173 438.26 191.173 436.902C191.173 435.562 191.417 434.325 191.905 433.191C192.398 432.057 193.085 431.103 193.966 430.33C194.853 429.556 195.889 429.034 197.075 428.766C197.796 428.603 198.494 428.567 199.17 428.658C199.846 428.75 200.453 428.996 200.991 429.397C201.528 429.798 201.952 430.381 202.262 431.146C202.573 431.905 202.728 432.879 202.728 434.066V434.97L192.578 437.266V435.357L200.292 433.612C200.292 432.941 200.159 432.378 199.893 431.921C199.627 431.458 199.253 431.131 198.771 430.939C198.295 430.746 197.735 430.722 197.092 430.867C196.394 431.025 195.784 431.339 195.263 431.809C194.748 432.273 194.349 432.817 194.066 433.444C193.789 434.063 193.651 434.7 193.651 435.353V436.845C193.651 437.72 193.8 438.43 194.099 438.976C194.404 439.521 194.828 439.894 195.371 440.095C195.914 440.29 196.549 440.305 197.275 440.141C197.746 440.035 198.175 439.869 198.563 439.645C198.951 439.415 199.287 439.129 199.569 438.787C199.852 438.444 200.068 438.052 200.218 437.609L202.57 437.511C202.382 438.264 202.044 438.963 201.556 439.607C201.074 440.245 200.467 440.794 199.735 441.255C199.009 441.709 198.181 442.041 197.25 442.252ZM204.549 440.336V427.245L206.952 426.702V428.781L207.085 428.751C207.317 427.994 207.727 427.347 208.315 426.811C208.908 426.267 209.578 425.911 210.327 425.742C210.482 425.707 210.665 425.671 210.875 425.635C211.091 425.597 211.26 425.573 211.382 425.563V428C211.283 427.994 211.105 428.003 210.85 428.027C210.595 428.045 210.34 428.082 210.085 428.14C209.498 428.273 208.974 428.519 208.514 428.879C208.06 429.232 207.7 429.663 207.434 430.172C207.168 430.675 207.035 431.211 207.035 431.779V439.774L204.549 440.336Z" fill="#BACFF4"/>
<g filter="url(#filter0_d_26_977)">
<rect width="170" height="168" rx="24" transform="matrix(0.978148 -0.207912 0 1 80 404.345)" fill="#EDF2FC" shape-rendering="crispEdges"/>
<rect width="40" height="40" rx="20" transform="matrix(0.978148 -0.207912 0 1 103.476 423.355)" fill="#05132B"/>
<path d="M118.147 438.57V436.903C118.147 434.145 118.963 431.73 123.038 430.864C127.114 429.997 127.929 432.066 127.929 434.824V436.491" stroke="#EDF2FC" stroke-width="2" stroke-linecap="round" stroke-linejoin="round"/>
<path d="M127.114 446.664L118.962 448.396C115.702 449.089 114.887 448.429 114.887 445.096V443.429C114.887 440.096 115.702 439.089 118.962 438.396L127.114 436.664C130.374 435.971 131.189 436.631 131.189 439.964V441.631C131.189 444.964 130.374 445.971 127.114 446.664Z" stroke="#EDF2FC" stroke-width="2" stroke-linecap="round" stroke-linejoin="round"/>
<path d="M126.296 441.838L126.303 441.836" stroke="#EDF2FC" stroke-width="2" stroke-linecap="round" stroke-linejoin="round"/>
<path d="M123.035 442.531L123.042 442.529" stroke="#EDF2FC" stroke-width="2" stroke-linecap="round" stroke-linejoin="round"/>
<path d="M119.773 443.224L119.781 443.222" stroke="#EDF2FC" stroke-width="2" stroke-linecap="round" stroke-linejoin="round"/>
<path d="M113.326 495.863C113.265 495.246 113.002 494.812 112.539 494.561C112.075 494.311 111.446 494.27 110.651 494.439C110.111 494.554 109.655 494.729 109.283 494.964C108.911 495.194 108.626 495.466 108.427 495.779C108.234 496.091 108.137 496.419 108.137 496.763C108.127 497.051 108.185 497.289 108.313 497.475C108.445 497.661 108.626 497.807 108.855 497.915C109.085 498.017 109.35 498.093 109.65 498.144C109.951 498.19 110.272 498.215 110.613 498.221L112.019 498.266C112.702 498.277 113.328 498.352 113.899 498.491C114.47 498.63 114.964 498.845 115.381 499.137C115.799 499.428 116.123 499.807 116.352 500.274C116.586 500.74 116.706 501.306 116.711 501.971C116.706 502.952 116.462 503.853 115.978 504.674C115.499 505.49 114.806 506.191 113.899 506.78C112.997 507.362 111.91 507.789 110.636 508.06C109.372 508.328 108.272 508.364 107.335 508.168C106.402 507.97 105.674 507.539 105.149 506.874C104.629 506.203 104.357 505.295 104.331 504.15L107.533 503.469C107.569 503.998 107.719 504.414 107.984 504.717C108.254 505.014 108.613 505.206 109.062 505.293C109.515 505.373 110.027 505.353 110.598 505.232C111.158 505.113 111.645 504.926 112.057 504.672C112.475 504.416 112.799 504.116 113.028 503.77C113.257 503.424 113.372 503.059 113.372 502.673C113.372 502.314 113.267 502.034 113.058 501.834C112.855 501.632 112.554 501.488 112.157 501.4C111.764 501.312 111.283 501.258 110.712 501.239L109.008 501.163C107.689 501.116 106.647 500.824 105.883 500.289C105.119 499.753 104.739 498.894 104.744 497.71C104.739 496.743 104.991 495.843 105.501 495.01C106.015 494.177 106.721 493.462 107.617 492.865C108.514 492.268 109.533 491.849 110.674 491.606C111.836 491.359 112.85 491.347 113.716 491.569C114.587 491.79 115.264 492.211 115.748 492.832C116.232 493.453 116.482 494.239 116.497 495.189L113.326 495.863ZM124.225 505.179C123.018 505.436 121.978 505.406 121.107 505.092C120.241 504.771 119.574 504.199 119.105 503.377C118.636 502.549 118.402 501.503 118.402 500.237C118.402 499.003 118.636 497.869 119.105 496.838C119.574 495.806 120.233 494.939 121.084 494.237C121.94 493.534 122.944 493.061 124.095 492.816C124.869 492.651 125.59 492.626 126.258 492.739C126.93 492.846 127.516 493.099 128.015 493.498C128.52 493.896 128.912 494.448 129.192 495.154C129.472 495.855 129.612 496.716 129.612 497.737V498.651L119.701 500.758V498.695L126.548 497.24C126.548 496.761 126.446 496.358 126.242 496.031C126.039 495.705 125.756 495.476 125.394 495.344C125.037 495.207 124.622 495.188 124.149 495.289C123.654 495.394 123.216 495.604 122.834 495.92C122.457 496.229 122.162 496.602 121.948 497.038C121.734 497.469 121.624 497.922 121.619 498.397V500.358C121.619 500.952 121.726 501.442 121.94 501.829C122.159 502.214 122.467 502.482 122.865 502.632C123.262 502.782 123.733 502.799 124.278 502.683C124.64 502.606 124.971 502.484 125.272 502.316C125.572 502.148 125.83 501.937 126.044 501.683C126.258 501.429 126.421 501.139 126.533 500.813L129.544 500.377C129.391 501.149 129.077 501.861 128.604 502.514C128.135 503.16 127.529 503.716 126.785 504.182C126.046 504.641 125.193 504.973 124.225 505.179ZM137.04 502.455C135.838 502.711 134.804 502.67 133.938 502.333C133.077 501.99 132.414 501.402 131.951 500.568C131.492 499.733 131.263 498.709 131.263 497.495C131.263 496.266 131.495 495.139 131.958 494.113C132.427 493.081 133.092 492.213 133.953 491.51C134.814 490.801 135.838 490.32 137.025 490.068C138.049 489.85 138.946 489.849 139.715 490.066C140.484 490.283 141.093 490.687 141.541 491.28C141.99 491.872 142.237 492.626 142.282 493.544L139.21 494.197C139.124 493.616 138.895 493.183 138.523 492.898C138.156 492.606 137.674 492.523 137.078 492.65C136.574 492.757 136.133 492.991 135.756 493.353C135.384 493.708 135.094 494.173 134.885 494.749C134.676 495.325 134.572 495.99 134.572 496.745C134.572 497.511 134.674 498.14 134.878 498.633C135.086 499.125 135.379 499.472 135.756 499.673C136.133 499.874 136.574 499.921 137.078 499.814C137.45 499.735 137.784 499.586 138.079 499.367C138.38 499.147 138.627 498.868 138.821 498.53C139.019 498.185 139.149 497.796 139.21 497.361L142.282 496.708C142.231 497.635 141.987 498.495 141.549 499.286C141.116 500.07 140.517 500.739 139.753 501.292C138.989 501.845 138.085 502.233 137.04 502.455ZM151.894 493.954V487.063L155.149 486.371V498.371L152.024 499.036V496.856L151.902 496.882C151.637 497.641 151.196 498.3 150.58 498.858C149.968 499.415 149.222 499.788 148.34 499.975C147.556 500.142 146.866 500.106 146.27 499.868C145.673 499.63 145.207 499.211 144.871 498.611C144.54 498.009 144.372 497.24 144.367 496.304V488.663L147.622 487.971V495.018C147.627 495.725 147.813 496.246 148.18 496.579C148.547 496.913 149.038 497.014 149.655 496.883C150.047 496.8 150.414 496.631 150.755 496.376C151.097 496.116 151.372 495.781 151.581 495.372C151.795 494.962 151.899 494.489 151.894 493.954ZM157.753 497.818V485.818L160.909 485.147V487.241L161.032 487.215C161.246 486.425 161.605 485.786 162.109 485.298C162.613 484.806 163.194 484.49 163.851 484.35C164.014 484.315 164.19 484.288 164.379 484.269C164.567 484.25 164.733 484.243 164.875 484.249V487.202C164.723 487.188 164.511 487.191 164.241 487.212C163.971 487.233 163.724 487.268 163.5 487.315C163.021 487.417 162.593 487.615 162.216 487.908C161.844 488.196 161.549 488.55 161.33 488.972C161.116 489.392 161.009 489.847 161.009 490.337V497.126L157.753 497.818ZM171.361 495.16C170.154 495.416 169.115 495.387 168.243 495.073C167.377 494.751 166.71 494.18 166.241 493.357C165.773 492.53 165.538 491.483 165.538 490.218C165.538 488.983 165.773 487.85 166.241 486.818C166.71 485.786 167.37 484.92 168.221 484.218C169.076 483.515 170.08 483.042 171.231 482.797C172.006 482.632 172.727 482.607 173.394 482.72C174.067 482.827 174.652 483.08 175.152 483.479C175.656 483.877 176.048 484.429 176.328 485.135C176.609 485.836 176.749 486.697 176.749 487.718V488.632L166.837 490.739V488.676L173.684 487.221C173.684 486.742 173.583 486.339 173.379 486.012C173.175 485.686 172.892 485.457 172.531 485.325C172.174 485.188 171.759 485.169 171.285 485.27C170.791 485.375 170.353 485.585 169.971 485.901C169.594 486.21 169.298 486.583 169.084 487.019C168.87 487.45 168.761 487.903 168.755 488.378V490.339C168.755 490.932 168.862 491.423 169.076 491.81C169.295 492.195 169.604 492.463 170.001 492.613C170.398 492.763 170.87 492.78 171.415 492.664C171.777 492.587 172.108 492.465 172.408 492.297C172.709 492.129 172.966 491.918 173.18 491.664C173.394 491.41 173.557 491.12 173.669 490.794L176.68 490.357C176.527 491.129 176.214 491.842 175.74 492.495C175.271 493.141 174.665 493.697 173.921 494.163C173.183 494.622 172.329 494.954 171.361 495.16ZM104.775 541.579V525.079L107.984 524.397V526.412L108.129 526.381C108.272 526.028 108.478 525.656 108.748 525.265C109.024 524.868 109.38 524.511 109.818 524.194C110.261 523.871 110.812 523.639 111.469 523.5C112.325 523.318 113.114 523.379 113.838 523.684C114.561 523.983 115.139 524.545 115.573 525.37C116.006 526.189 116.222 527.286 116.222 528.661C116.222 530 116.011 531.175 115.588 532.187C115.17 533.192 114.599 534.009 113.876 534.636C113.158 535.258 112.353 535.663 111.461 535.853C110.83 535.987 110.292 535.995 109.849 535.875C109.411 535.755 109.052 535.563 108.771 535.3C108.491 535.031 108.277 534.746 108.129 534.444L108.03 534.465V540.887L104.775 541.579ZM107.961 530.402C107.961 531.115 108.058 531.717 108.252 532.207C108.445 532.697 108.725 533.052 109.092 533.27C109.459 533.484 109.905 533.535 110.43 533.424C110.959 533.311 111.408 533.067 111.775 532.693C112.141 532.312 112.419 531.837 112.608 531.265C112.801 530.688 112.898 530.05 112.898 529.352C112.898 528.659 112.804 528.07 112.615 527.584C112.427 527.098 112.149 526.746 111.782 526.527C111.415 526.308 110.965 526.255 110.43 526.369C109.9 526.482 109.451 526.72 109.085 527.085C108.723 527.448 108.445 527.913 108.252 528.48C108.058 529.048 107.961 529.688 107.961 530.402ZM121.739 533.699C120.991 533.859 120.323 533.868 119.737 533.727C119.151 533.58 118.688 533.28 118.346 532.827C118.01 532.367 117.842 531.741 117.842 530.95C117.842 530.283 117.962 529.698 118.201 529.194C118.441 528.69 118.767 528.256 119.179 527.892C119.592 527.528 120.061 527.22 120.586 526.968C121.115 526.715 121.671 526.498 122.251 526.317C122.934 526.099 123.484 525.914 123.902 525.763C124.32 525.607 124.623 525.443 124.811 525.273C125 525.103 125.094 524.89 125.094 524.635V524.588C125.094 524.093 124.941 523.743 124.636 523.537C124.335 523.33 123.907 523.286 123.352 523.404C122.766 523.528 122.3 523.76 121.953 524.099C121.607 524.433 121.378 524.81 121.266 525.23L118.255 525.62C118.408 524.858 118.708 524.164 119.157 523.538C119.605 522.906 120.183 522.371 120.891 521.934C121.604 521.491 122.43 521.17 123.367 520.971C124.019 520.832 124.643 520.778 125.239 520.807C125.841 520.836 126.373 520.965 126.837 521.194C127.305 521.423 127.675 521.766 127.945 522.224C128.215 522.677 128.35 523.261 128.35 523.974V532.068L125.262 532.724V531.06L125.171 531.08C124.982 531.495 124.73 531.879 124.414 532.232C124.098 532.581 123.719 532.883 123.275 533.139C122.832 533.389 122.32 533.576 121.739 533.699ZM122.672 531.204C123.151 531.103 123.573 530.916 123.94 530.646C124.307 530.37 124.595 530.043 124.804 529.665C125.013 529.288 125.117 528.888 125.117 528.466V527.192C125.015 527.282 124.875 527.374 124.697 527.469C124.524 527.558 124.327 527.649 124.108 527.743C123.889 527.831 123.67 527.917 123.451 528C123.232 528.077 123.033 528.148 122.855 528.212C122.473 528.351 122.139 528.513 121.854 528.699C121.569 528.884 121.347 529.101 121.189 529.348C121.031 529.59 120.952 529.867 120.952 530.179C120.952 530.632 121.113 530.945 121.434 531.116C121.76 531.281 122.172 531.311 122.672 531.204ZM132.465 535.693C132.052 535.781 131.665 535.829 131.303 535.838C130.947 535.852 130.651 535.834 130.417 535.785L131.15 533.144C131.532 533.183 131.876 533.175 132.182 533.12C132.493 533.065 132.76 532.935 132.984 532.731C133.214 532.526 133.4 532.221 133.542 531.816L133.733 531.267L129.523 519.819L132.946 519.091L135.376 527.387L135.498 527.361L137.951 518.027L141.398 517.294L136.836 531.561C136.617 532.253 136.319 532.879 135.942 533.438C135.57 534.002 135.099 534.474 134.528 534.856C133.957 535.243 133.27 535.522 132.465 535.693ZM143.064 528.94V516.94L146.166 516.281V518.398L146.304 518.369C146.548 517.614 146.956 516.972 147.527 516.445C148.097 515.917 148.78 515.569 149.575 515.4C150.38 515.229 151.065 515.289 151.63 515.58C152.196 515.866 152.573 516.338 152.761 516.996L152.884 516.97C153.123 516.232 153.556 515.59 154.183 515.046C154.814 514.495 155.561 514.128 156.422 513.945C157.517 513.712 158.406 513.88 159.089 514.448C159.776 515.01 160.12 515.942 160.12 517.244V525.315L156.873 526.005V518.591C156.873 517.924 156.699 517.461 156.353 517.202C156.006 516.942 155.573 516.867 155.054 516.978C154.463 517.103 154.002 517.394 153.671 517.85C153.339 518.3 153.174 518.838 153.174 519.463V526.791L150.018 527.462V519.978C150.018 519.389 149.852 518.956 149.521 518.677C149.195 518.397 148.765 518.314 148.23 518.428C147.868 518.505 147.542 518.668 147.252 518.917C146.966 519.16 146.74 519.466 146.571 519.835C146.403 520.199 146.319 520.602 146.319 521.045V528.248L143.064 528.94ZM168.041 523.866C166.834 524.122 165.794 524.093 164.923 523.778C164.057 523.457 163.39 522.885 162.921 522.063C162.452 521.236 162.218 520.189 162.218 518.924C162.218 517.689 162.452 516.556 162.921 515.524C163.39 514.492 164.049 513.625 164.9 512.924C165.756 512.221 166.76 511.747 167.911 511.503C168.685 511.338 169.406 511.312 170.074 511.426C170.746 511.533 171.332 511.786 171.831 512.185C172.336 512.583 172.728 513.135 173.008 513.841C173.288 514.542 173.428 515.403 173.428 516.424V517.338L163.517 519.444V517.382L170.364 515.926C170.364 515.447 170.262 515.044 170.058 514.718C169.855 514.392 169.572 514.163 169.21 514.031C168.854 513.893 168.438 513.875 167.965 513.976C167.47 514.081 167.032 514.291 166.65 514.606C166.273 514.916 165.978 515.288 165.764 515.725C165.55 516.156 165.44 516.608 165.435 517.084V519.044C165.435 519.638 165.542 520.128 165.756 520.515C165.975 520.901 166.283 521.169 166.681 521.319C167.078 521.469 167.549 521.486 168.094 521.37C168.456 521.293 168.787 521.17 169.088 521.002C169.388 520.834 169.646 520.623 169.86 520.37C170.074 520.116 170.237 519.826 170.349 519.5L173.36 519.063C173.207 519.835 172.893 520.548 172.42 521.2C171.951 521.847 171.345 522.403 170.601 522.868C169.862 523.327 169.009 523.66 168.041 523.866ZM178.808 514.405V521.343L175.553 522.034V510.034L178.655 509.375V511.492L178.793 511.463C179.053 510.71 179.488 510.065 180.1 509.529C180.711 508.988 181.452 508.624 182.323 508.439C183.139 508.266 183.849 508.297 184.456 508.533C185.062 508.769 185.533 509.189 185.869 509.795C186.205 510.395 186.374 511.162 186.374 512.094V519.734L183.118 520.426V513.38C183.123 512.644 182.94 512.11 182.568 511.778C182.196 511.44 181.684 511.341 181.032 511.479C180.594 511.572 180.207 511.751 179.87 512.015C179.539 512.278 179.279 512.615 179.091 513.025C178.908 513.428 178.813 513.888 178.808 514.405ZM195.183 505.862V508.362L188.114 509.865V507.365L195.183 505.862ZM189.719 504.148L192.974 503.456V514.644C192.974 514.951 193.02 515.181 193.112 515.333C193.203 515.481 193.331 515.571 193.494 515.604C193.662 515.636 193.856 515.629 194.075 515.582C194.227 515.549 194.38 515.504 194.533 515.445C194.686 515.382 194.803 515.333 194.885 515.3L195.397 517.668C195.234 517.755 195.004 517.863 194.709 517.994C194.413 518.13 194.054 518.25 193.631 518.356C192.847 518.554 192.159 518.593 191.568 518.474C190.982 518.354 190.526 518.071 190.2 517.624C189.874 517.178 189.714 516.561 189.719 515.773V504.148ZM206.922 506.789L203.942 507.61C203.891 507.36 203.782 507.149 203.613 506.976C203.445 506.798 203.224 506.676 202.949 506.61C202.679 506.537 202.355 506.541 201.978 506.621C201.474 506.728 201.048 506.928 200.702 507.22C200.355 507.507 200.182 507.831 200.182 508.19C200.182 508.476 200.294 508.695 200.519 508.845C200.743 508.995 201.127 509.072 201.672 509.076L203.797 509.062C204.938 509.059 205.789 509.264 206.349 509.676C206.91 510.088 207.19 510.727 207.19 511.591C207.19 512.378 206.963 513.116 206.51 513.806C206.061 514.495 205.445 515.09 204.66 515.59C203.881 516.083 202.982 516.439 201.963 516.655C200.409 516.986 199.171 516.918 198.249 516.452C197.332 515.981 196.794 515.189 196.636 514.076L199.838 513.224C199.935 513.688 200.17 514.008 200.541 514.184C200.913 514.355 201.39 514.379 201.97 514.255C202.541 514.134 203 513.924 203.346 513.627C203.698 513.323 203.876 512.991 203.881 512.63C203.876 512.329 203.751 512.108 203.506 511.968C203.262 511.822 202.885 511.751 202.375 511.755L200.343 511.773C199.196 511.782 198.343 511.557 197.783 511.098C197.227 510.638 196.95 509.96 196.95 509.065C196.95 508.294 197.154 507.586 197.561 506.942C197.974 506.297 198.552 505.745 199.296 505.285C200.045 504.823 200.921 504.486 201.925 504.273C203.407 503.958 204.574 504.03 205.425 504.49C206.28 504.948 206.78 505.715 206.922 506.789Z" fill="#05132B"/>
</g>
<g filter="url(#filter1_f_26_977)">
<rect width="29" height="250" transform="matrix(0.978148 -0.207912 0 1 158 291.03)" fill="#171717" fill-opacity="0.25"/>
</g>
<g filter="url(#filter2_d_26_977)">
<g clip-path="url(#clip0_26_977)">
<rect width="267.388" height="371.43" rx="28.692" transform="matrix(0.978148 -0.207912 0 1 331 115.593)" fill="#1860D9"/>
<g clip-path="url(#clip1_26_977)">
<path d="M633.838 496.604L576.937 363.021C564.821 334.578 585.691 303 616.603 303L673.504 436.582C685.62 465.025 664.75 496.588 633.838 496.588V496.604Z" fill="#EDF2FC"/>
<path d="M489.397 496.604L432.496 363.006C420.379 334.578 441.25 303 472.161 303L529.063 436.582C541.179 465.025 520.309 496.588 489.397 496.588V496.604Z" fill="#EDF2FC"/>
<path d="M561.609 496.604L504.708 363.006C492.607 334.578 513.477 303 544.389 303L601.29 436.582C613.407 465.025 592.536 496.588 561.624 496.588L561.609 496.604Z" fill="#EDF2FC"/>
</g>
<path d="M356.205 144.422L360.286 143.554L364.596 153.388L364.779 153.349L369.089 141.683L373.17 140.816V156.816L369.96 157.498V147.084L369.83 147.112L365.78 158.308L363.595 158.773L359.544 149.259L359.415 149.286V159.74L356.205 160.422V144.422ZM375.835 156.249V144.249L379.09 143.557V155.557L375.835 156.249ZM377.47 142.355C376.986 142.458 376.571 142.382 376.225 142.127C375.883 141.867 375.713 141.505 375.713 141.041C375.713 140.583 375.883 140.153 376.225 139.752C376.571 139.345 376.986 139.091 377.47 138.988C377.954 138.885 378.367 138.964 378.708 139.225C379.055 139.479 379.228 139.835 379.228 140.294C379.228 140.757 379.055 141.193 378.708 141.6C378.367 142 377.954 142.252 377.47 142.355ZM384.953 147.374V154.311L381.698 155.003V143.003L384.8 142.344V144.461L384.938 144.432C385.198 143.678 385.633 143.034 386.245 142.498C386.856 141.956 387.597 141.593 388.469 141.408C389.284 141.234 389.994 141.266 390.601 141.501C391.207 141.737 391.678 142.158 392.014 142.763C392.351 143.364 392.519 144.13 392.519 145.062V152.703L389.263 153.395V146.348C389.268 145.613 389.085 145.079 388.713 144.746C388.341 144.409 387.829 144.309 387.177 144.448C386.739 144.541 386.352 144.72 386.016 144.984C385.684 145.247 385.425 145.583 385.236 145.993C385.053 146.397 384.958 146.857 384.953 147.374ZM401.328 138.831V141.331L394.259 142.833V140.333L401.328 138.831ZM395.864 137.117L399.119 136.425V147.613C399.119 147.92 399.165 148.15 399.257 148.302C399.349 148.449 399.476 148.539 399.639 148.572C399.807 148.604 400.001 148.597 400.22 148.551C400.373 148.518 400.525 148.473 400.678 148.414C400.831 148.35 400.948 148.302 401.03 148.269L401.542 150.637C401.379 150.723 401.149 150.832 400.854 150.963C400.558 151.098 400.199 151.219 399.776 151.324C398.992 151.522 398.304 151.562 397.713 151.443C397.127 151.322 396.671 151.039 396.345 150.593C396.019 150.147 395.859 149.53 395.864 148.742V137.117ZM409.417 143.549L412.229 142.951L413.642 144.51L415.033 145.871L417.654 148.673L414.567 149.329L412.764 147.447L411.839 146.3L409.417 143.549ZM417.891 139.31C417.891 141.055 417.568 142.608 416.921 143.969C416.279 145.33 415.403 146.451 414.292 147.333C413.187 148.208 411.943 148.793 410.563 149.086C409.172 149.382 407.924 149.324 406.818 148.914C405.713 148.503 404.839 147.754 404.197 146.666C403.555 145.579 403.234 144.165 403.234 142.425C403.234 140.681 403.555 139.128 404.197 137.768C404.839 136.407 405.713 135.289 406.818 134.414C407.924 133.533 409.172 132.945 410.563 132.649C411.943 132.355 413.187 132.414 414.292 132.825C415.403 133.23 416.279 133.976 416.921 135.063C417.568 136.15 417.891 137.565 417.891 139.31ZM414.537 140.023C414.537 138.893 414.371 137.975 414.04 137.269C413.714 136.563 413.253 136.072 412.657 135.798C412.061 135.523 411.363 135.471 410.563 135.641C409.763 135.811 409.065 136.16 408.469 136.688C407.873 137.215 407.409 137.903 407.078 138.749C406.752 139.594 406.589 140.582 406.589 141.712C406.589 142.843 406.752 143.761 407.078 144.468C407.409 145.173 407.873 145.663 408.469 145.938C409.065 146.212 409.763 146.264 410.563 146.094C411.363 145.924 412.061 145.575 412.657 145.048C413.253 144.52 413.714 143.833 414.04 142.988C414.371 142.142 414.537 141.153 414.537 140.023ZM423.537 130.11V146.11L420.281 146.802V130.802L423.537 130.11ZM426.144 145.556V133.556L429.4 132.864V144.864L426.144 145.556ZM427.78 131.661C427.296 131.764 426.881 131.688 426.534 131.434C426.193 131.173 426.022 130.811 426.022 130.347C426.022 129.889 426.193 129.459 426.534 129.059C426.881 128.652 427.296 128.397 427.78 128.294C428.264 128.191 428.676 128.27 429.018 128.531C429.364 128.785 429.537 129.142 429.537 129.6C429.537 130.064 429.364 130.499 429.018 130.906C428.676 131.307 428.264 131.558 427.78 131.661ZM437.311 143.417C436.109 143.672 435.074 143.632 434.208 143.295C433.347 142.952 432.685 142.363 432.222 141.53C431.763 140.695 431.534 139.671 431.534 138.457C431.534 137.228 431.766 136.1 432.229 135.075C432.698 134.043 433.363 133.175 434.224 132.471C435.085 131.762 436.109 131.282 437.296 131.029C438.32 130.812 439.216 130.811 439.986 131.028C440.755 131.244 441.364 131.649 441.812 132.241C442.26 132.833 442.507 133.588 442.553 134.505L439.481 135.158C439.395 134.578 439.165 134.145 438.793 133.859C438.427 133.567 437.945 133.485 437.349 133.612C436.845 133.719 436.404 133.953 436.027 134.314C435.655 134.67 435.365 135.135 435.156 135.711C434.947 136.286 434.843 136.952 434.843 137.707C434.843 138.472 434.945 139.102 435.148 139.595C435.357 140.087 435.65 140.434 436.027 140.635C436.404 140.836 436.845 140.883 437.349 140.776C437.721 140.697 438.055 140.548 438.35 140.328C438.651 140.108 438.898 139.829 439.092 139.491C439.29 139.147 439.42 138.757 439.481 138.322L442.553 137.669C442.502 138.597 442.258 139.456 441.82 140.247C441.387 141.032 440.788 141.701 440.024 142.254C439.26 142.807 438.355 143.195 437.311 143.417ZM447.587 137.545L447.595 133.551L448.069 133.45L451.828 128.096L455.565 127.302L450.514 134.407L449.742 134.571L447.587 137.545ZM444.638 141.625V125.625L447.893 124.933V140.933L444.638 141.625ZM451.974 140.066L448.52 135.573L450.69 132.76L455.787 139.255L451.974 140.066Z" fill="#EDF2FC"/>
</g>
</g>
<path d="M544.896 5.40712C545.707 18.3947 555.945 26.5752 568.792 24.5C555.945 28.2387 545.707 41.0524 544.896 54.4071C544.085 41.4195 533.846 33.2392 521 35.3142C533.846 31.5757 544.085 18.7618 544.896 5.40712Z" fill="#1860D9"/>
<path d="M510.896 474.407C511.707 487.395 521.945 495.575 534.792 493.5C521.945 497.239 511.707 510.052 510.896 523.407C510.085 510.419 499.846 502.239 487 504.314C499.846 500.576 510.085 487.762 510.896 474.407Z" fill="#1860D9"/>
<g filter="url(#filter3_dd_26_977)">
<rect width="170" height="168" rx="24" transform="matrix(0.975342 -0.220697 0 1 115 113.519)" fill="#EDF2FC" shape-rendering="crispEdges"/>
<rect width="40" height="40" rx="20" transform="matrix(0.975342 -0.220697 0 1 138.408 132.222)" fill="#05132B"/>
<path d="M165.718 141.042V151.042C165.718 155.042 164.742 156.263 160.841 157.146L154.989 158.47C151.088 159.353 150.112 158.573 150.112 154.573V144.573C150.112 140.573 151.088 139.353 154.989 138.47L160.841 137.146C164.742 136.263 165.718 137.042 165.718 141.042Z" stroke="#EDF2FC" stroke-width="2" stroke-linecap="round" stroke-linejoin="round"/>
<path d="M159.866 140.866L155.965 141.749" stroke="#EDF2FC" stroke-width="2" stroke-linecap="round" stroke-linejoin="round"/>
<path d="M157.915 154.908C158.75 154.719 159.427 153.872 159.427 153.016C159.427 152.16 158.75 151.619 157.915 151.808C157.08 151.997 156.403 152.844 156.403 153.7C156.403 154.556 157.08 155.097 157.915 154.908Z" stroke="#EDF2FC" stroke-width="2" stroke-linecap="round" stroke-linejoin="round"/>
<path d="M154.105 206.67C154.105 208.415 153.783 209.972 153.137 211.342C152.497 212.711 151.624 213.844 150.516 214.74C149.414 215.63 148.174 216.231 146.798 216.542C145.411 216.856 144.166 216.815 143.064 216.418C141.962 216.022 141.09 215.284 140.45 214.205C139.81 213.126 139.49 211.717 139.49 209.977C139.49 208.232 139.81 206.676 140.45 205.307C141.09 203.938 141.962 202.808 143.064 201.918C144.166 201.023 145.411 200.419 146.798 200.105C148.174 199.793 149.414 199.836 150.516 200.232C151.624 200.622 152.497 201.357 153.137 202.436C153.783 203.514 154.105 204.925 154.105 206.67ZM150.76 207.427C150.76 206.297 150.595 205.381 150.265 204.68C149.94 203.977 149.48 203.493 148.886 203.226C148.291 202.96 147.595 202.917 146.798 203.097C146 203.277 145.304 203.635 144.71 204.171C144.115 204.707 143.653 205.4 143.323 206.25C142.998 207.1 142.835 208.09 142.835 209.22C142.835 210.35 142.998 211.267 143.323 211.969C143.653 212.671 144.115 213.154 144.71 213.421C145.304 213.688 146 213.731 146.798 213.55C147.595 213.37 148.291 213.012 148.886 212.476C149.48 211.941 149.94 211.248 150.265 210.398C150.595 209.548 150.76 208.557 150.76 207.427ZM159.734 206.459V213.396L156.488 214.131V202.131L159.582 201.431V203.548L159.719 203.517C159.978 202.76 160.412 202.11 161.022 201.566C161.632 201.016 162.371 200.644 163.239 200.447C164.052 200.263 164.761 200.285 165.365 200.513C165.97 200.741 166.44 201.155 166.775 201.756C167.11 202.352 167.278 203.116 167.278 204.049V211.689L164.032 212.424V205.377C164.037 204.641 163.854 204.11 163.483 203.782C163.112 203.45 162.602 203.357 161.952 203.504C161.515 203.603 161.129 203.787 160.793 204.055C160.463 204.323 160.204 204.662 160.016 205.075C159.833 205.481 159.739 205.942 159.734 206.459ZM175.17 210.138C173.966 210.41 172.93 210.395 172.061 210.091C171.198 209.782 170.532 209.219 170.065 208.402C169.598 207.581 169.364 206.538 169.364 205.272C169.364 204.038 169.598 202.901 170.065 201.863C170.532 200.825 171.19 199.95 172.038 199.237C172.892 198.523 173.893 198.036 175.041 197.777C175.813 197.602 176.532 197.567 177.197 197.671C177.868 197.77 178.452 198.015 178.95 198.408C179.453 198.799 179.844 199.346 180.123 200.048C180.403 200.746 180.542 201.605 180.542 202.625V203.54L170.659 205.776V203.713L177.487 202.168C177.487 201.689 177.385 201.288 177.182 200.964C176.979 200.64 176.697 200.415 176.336 200.288C175.98 200.155 175.566 200.142 175.094 200.249C174.601 200.36 174.164 200.576 173.783 200.897C173.407 201.211 173.113 201.588 172.9 202.027C172.686 202.46 172.577 202.915 172.572 203.39V205.351C172.572 205.945 172.679 206.433 172.892 206.818C173.11 207.2 173.418 207.464 173.814 207.609C174.21 207.754 174.68 207.764 175.224 207.641C175.584 207.56 175.914 207.433 176.214 207.261C176.514 207.089 176.77 206.875 176.984 206.618C177.197 206.362 177.36 206.07 177.471 205.742L180.474 205.266C180.321 206.04 180.009 206.757 179.536 207.416C179.069 208.068 178.465 208.632 177.723 209.107C176.986 209.576 176.135 209.92 175.17 210.138ZM139.765 245.915V229.915L145.921 228.522C147.105 228.254 148.113 228.258 148.946 228.533C149.78 228.802 150.415 229.297 150.851 230.016C151.293 230.728 151.514 231.616 151.514 232.678C151.514 233.741 151.291 234.729 150.844 235.642C150.397 236.556 149.749 237.335 148.901 237.981C148.057 238.624 147.036 239.082 145.838 239.353L141.913 240.241V237.53L145.304 236.763C145.939 236.619 146.462 236.389 146.874 236.072C147.29 235.749 147.6 235.363 147.803 234.916C148.012 234.463 148.116 233.973 148.116 233.447C148.116 232.916 148.012 232.476 147.803 232.127C147.6 231.772 147.29 231.532 146.874 231.408C146.457 231.278 145.929 231.286 145.289 231.431L143.064 231.934V245.168L139.765 245.915ZM156.843 226.051V242.051L153.596 242.785V226.785L156.843 226.051ZM162.78 240.934C162.034 241.103 161.368 241.12 160.784 240.987C160.2 240.848 159.737 240.554 159.397 240.105C159.062 239.65 158.894 239.027 158.894 238.235C158.894 237.568 159.014 236.981 159.252 236.474C159.491 235.967 159.816 235.529 160.228 235.16C160.639 234.791 161.107 234.476 161.63 234.217C162.158 233.957 162.712 233.733 163.291 233.545C163.972 233.318 164.52 233.126 164.937 232.969C165.353 232.807 165.656 232.64 165.844 232.467C166.031 232.294 166.125 232.08 166.125 231.825V231.778C166.125 231.283 165.973 230.935 165.668 230.733C165.369 230.53 164.942 230.491 164.388 230.617C163.804 230.749 163.339 230.987 162.994 231.331C162.648 231.669 162.42 232.049 162.308 232.47L159.306 232.9C159.458 232.136 159.758 231.438 160.205 230.805C160.652 230.168 161.228 229.626 161.935 229.18C162.646 228.727 163.469 228.395 164.403 228.184C165.054 228.036 165.676 227.974 166.27 227.996C166.87 228.016 167.401 228.138 167.863 228.362C168.33 228.584 168.698 228.923 168.968 229.377C169.237 229.827 169.372 230.408 169.372 231.122V239.216L166.293 239.912V238.248L166.202 238.269C166.014 238.686 165.762 239.074 165.447 239.432C165.132 239.784 164.754 240.091 164.312 240.353C163.87 240.609 163.359 240.803 162.78 240.934ZM163.71 238.426C164.187 238.318 164.609 238.127 164.975 237.851C165.341 237.57 165.628 237.24 165.836 236.859C166.044 236.479 166.148 236.078 166.148 235.656V234.382C166.047 234.473 165.907 234.567 165.729 234.665C165.557 234.756 165.361 234.85 165.142 234.946C164.924 235.037 164.706 235.126 164.487 235.211C164.269 235.292 164.071 235.366 163.893 235.432C163.512 235.575 163.179 235.742 162.895 235.931C162.61 236.121 162.389 236.34 162.232 236.589C162.074 236.833 161.995 237.111 161.995 237.424C161.995 237.877 162.156 238.187 162.476 238.354C162.801 238.515 163.212 238.539 163.71 238.426ZM178.115 225.237V227.737L171.067 229.332V226.832L178.115 225.237ZM172.667 223.595L175.913 222.86V234.048C175.913 234.355 175.959 234.584 176.05 234.736C176.142 234.882 176.269 234.97 176.431 235.001C176.599 235.031 176.792 235.021 177.01 234.972C177.163 234.937 177.315 234.89 177.468 234.829C177.62 234.763 177.737 234.713 177.818 234.679L178.329 237.04C178.166 237.129 177.938 237.241 177.643 237.375C177.348 237.515 176.99 237.64 176.568 237.751C175.786 237.959 175.1 238.008 174.511 237.896C173.927 237.784 173.472 237.506 173.147 237.064C172.822 236.622 172.662 236.008 172.667 235.22V223.595ZM186.524 223.334V225.834L179.3 227.469V224.969L186.524 223.334ZM180.954 236.595V223.728C180.954 222.858 181.119 222.099 181.449 221.452C181.784 220.803 182.241 220.27 182.821 219.852C183.4 219.435 184.058 219.143 184.794 218.976C185.292 218.863 185.747 218.799 186.158 218.784C186.575 218.768 186.884 218.768 187.088 218.785L186.509 221.416C186.382 221.403 186.224 221.4 186.036 221.406C185.853 221.411 185.665 221.435 185.472 221.479C184.995 221.587 184.662 221.777 184.474 222.048C184.286 222.315 184.192 222.651 184.192 223.057V235.862L180.954 236.595ZM193.376 234.018C192.192 234.286 191.169 234.26 190.305 233.94C189.447 233.613 188.784 233.039 188.316 232.218C187.849 231.391 187.615 230.364 187.615 229.134C187.615 227.895 187.849 226.759 188.316 225.726C188.784 224.688 189.447 223.814 190.305 223.104C191.169 222.388 192.192 221.896 193.376 221.628C194.56 221.36 195.581 221.389 196.439 221.716C197.303 222.036 197.968 222.609 198.436 223.436C198.903 224.257 199.137 225.288 199.137 226.527C199.137 227.757 198.903 228.89 198.436 229.928C197.968 230.961 197.303 231.836 196.439 232.552C195.581 233.262 194.56 233.751 193.376 234.018ZM193.391 231.437C193.93 231.315 194.379 231.057 194.74 230.663C195.101 230.264 195.372 229.77 195.555 229.181C195.743 228.592 195.837 227.948 195.837 227.251C195.837 226.553 195.743 225.951 195.555 225.447C195.372 224.942 195.101 224.571 194.74 224.335C194.379 224.099 193.93 224.042 193.391 224.163C192.848 224.286 192.39 224.549 192.02 224.95C191.654 225.351 191.377 225.846 191.189 226.435C191.006 227.023 190.915 227.666 190.915 228.364C190.915 229.062 191.006 229.664 191.189 230.169C191.377 230.674 191.654 231.043 192.02 231.278C192.39 231.507 192.848 231.56 193.391 231.437ZM201.247 232.003V220.003L204.394 219.291V221.385L204.516 221.357C204.73 220.564 205.088 219.92 205.591 219.426C206.094 218.927 206.673 218.603 207.328 218.455C207.491 218.418 207.666 218.389 207.854 218.367C208.042 218.346 208.207 218.337 208.349 218.341V221.294C208.197 221.282 207.986 221.288 207.717 221.312C207.447 221.337 207.201 221.374 206.977 221.425C206.5 221.533 206.073 221.736 205.697 222.035C205.326 222.327 205.032 222.686 204.813 223.11C204.6 223.533 204.493 223.99 204.493 224.479V231.268L201.247 232.003ZM210.027 230.016V218.016L213.121 217.316V219.433L213.258 219.402C213.502 218.644 213.908 217.997 214.477 217.462C215.046 216.927 215.727 216.57 216.519 216.391C217.322 216.209 218.005 216.26 218.569 216.544C219.133 216.823 219.509 217.29 219.697 217.945L219.819 217.918C220.058 217.176 220.489 216.529 221.114 215.976C221.744 215.417 222.488 215.04 223.347 214.846C224.439 214.599 225.325 214.755 226.006 215.315C226.692 215.868 227.035 216.795 227.035 218.097V226.168L223.796 226.901V219.486C223.796 218.82 223.624 218.359 223.278 218.104C222.933 217.849 222.501 217.78 221.983 217.897C221.394 218.03 220.934 218.327 220.604 218.787C220.273 219.242 220.108 219.782 220.108 220.407V227.735L216.961 228.447V220.963C216.961 220.374 216.796 219.943 216.466 219.669C216.141 219.393 215.712 219.316 215.178 219.437C214.818 219.518 214.493 219.685 214.203 219.939C213.918 220.185 213.692 220.494 213.525 220.865C213.357 221.231 213.273 221.636 213.273 222.079V229.282L210.027 230.016Z" fill="#05132B"/>
</g>
<path d="M608.521 198.218C612.047 204.605 611.586 212.983 607.405 222.846C603.231 232.695 595.413 243.855 584.537 255.628C562.792 279.166 528.981 304.985 488.252 327.471C447.522 349.956 407.658 364.811 376.153 370.67C360.395 373.601 346.786 374.27 336.227 372.555C325.654 370.837 318.318 366.763 314.792 360.376C311.266 353.988 311.727 345.61 315.907 335.748C320.081 325.899 327.899 314.739 338.776 302.966C360.52 279.427 394.331 253.608 435.061 231.123C475.791 208.637 515.655 193.783 547.159 187.923C562.917 184.993 576.527 184.323 587.085 186.039C597.659 187.757 604.994 191.83 608.521 198.218Z" stroke="url(#paint0_linear_26_977)" stroke-width="2"/>
<defs>
<filter id="filter0_d_26_977" x="0" y="369" width="246.285" height="283.345" filterUnits="userSpaceOnUse" color-interpolation-filters="sRGB">
<feFlood flood-opacity="0" result="BackgroundImageFix"/>
<feColorMatrix in="SourceAlpha" type="matrix" values="0 0 0 0 0 0 0 0 0 0 0 0 0 0 0 0 0 0 127 0" result="hardAlpha"/>
<feOffset dx="-40" dy="40"/>
<feGaussianBlur stdDeviation="20"/>
<feComposite in2="hardAlpha" operator="out"/>
<feColorMatrix type="matrix" values="0 0 0 0 0.0901961 0 0 0 0 0.0901961 0 0 0 0 0.0901961 0 0 0 0.02 0"/>
<feBlend mode="normal" in2="BackgroundImageFix" result="effect1_dropShadow_26_977"/>
<feBlend mode="normal" in="SourceGraphic" in2="effect1_dropShadow_26_977" result="shape"/>
</filter>
<filter id="filter1_f_26_977" x="114" y="241" width="116.366" height="344.03" filterUnits="userSpaceOnUse" color-interpolation-filters="sRGB">
<feFlood flood-opacity="0" result="BackgroundImageFix"/>
<feBlend mode="normal" in="SourceGraphic" in2="BackgroundImageFix" result="shape"/>
<feGaussianBlur stdDeviation="22" result="effect1_foregroundBlur_26_977"/>
</filter>
<filter id="filter2_d_26_977" x="203" y="60" width="389.545" height="555.023" filterUnits="userSpaceOnUse" color-interpolation-filters="sRGB">
<feFlood flood-opacity="0" result="BackgroundImageFix"/>
<feColorMatrix in="SourceAlpha" type="matrix" values="0 0 0 0 0 0 0 0 0 0 0 0 0 0 0 0 0 0 127 0" result="hardAlpha"/>
<feOffset dx="-64" dy="64"/>
<feGaussianBlur stdDeviation="32"/>
<feComposite in2="hardAlpha" operator="out"/>
<feColorMatrix type="matrix" values="0 0 0 0 0.0901961 0 0 0 0 0.0901961 0 0 0 0 0.0901961 0 0 0 0.08 0"/>
<feBlend mode="normal" in2="BackgroundImageFix" result="effect1_dropShadow_26_977"/>
<feBlend mode="normal" in="SourceGraphic" in2="effect1_dropShadow_26_977" result="shape"/>
</filter>
<filter id="filter3_dd_26_977" x="35" y="60" width="309.809" height="301.519" filterUnits="userSpaceOnUse" color-interpolation-filters="sRGB">
<feFlood flood-opacity="0" result="BackgroundImageFix"/>
<feColorMatrix in="SourceAlpha" type="matrix" values="0 0 0 0 0 0 0 0 0 0 0 0 0 0 0 0 0 0 127 0" result="hardAlpha"/>
<feOffset dx="-40" dy="40"/>
<feGaussianBlur stdDeviation="20"/>
<feComposite in2="hardAlpha" operator="out"/>
<feColorMatrix type="matrix" values="0 0 0 0 0.0901961 0 0 0 0 0.0901961 0 0 0 0 0.0901961 0 0 0 0.03 0"/>
<feBlend mode="normal" in2="BackgroundImageFix" result="effect1_dropShadow_26_977"/>
<feColorMatrix in="SourceAlpha" type="matrix" values="0 0 0 0 0 0 0 0 0 0 0 0 0 0 0 0 0 0 127 0" result="hardAlpha"/>
<feOffset dx="24" dy="24"/>
<feGaussianBlur stdDeviation="20"/>
<feComposite in2="hardAlpha" operator="out"/>
<feColorMatrix type="matrix" values="0 0 0 0 0.0901961 0 0 0 0 0.0901961 0 0 0 0 0.0901961 0 0 0 0.08 0"/>
<feBlend mode="normal" in2="effect1_dropShadow_26_977" result="effect2_dropShadow_26_977"/>
<feBlend mode="normal" in="SourceGraphic" in2="effect2_dropShadow_26_977" result="shape"/>
</filter>
<linearGradient id="paint0_linear_26_977" x1="424.782" y1="204.304" x2="489.206" y2="328.101" gradientUnits="userSpaceOnUse">
<stop stop-color="white" stop-opacity="0"/>
<stop offset="0.465152" stop-opacity="0"/>
<stop offset="1" stop-color="white"/>
</linearGradient>
<clipPath id="clip0_26_977">
<rect width="267.388" height="371.43" rx="28.692" transform="matrix(0.978148 -0.207912 0 1 331 115.593)" fill="white"/>
</clipPath>
<clipPath id="clip1_26_977">
<rect width="288.718" height="288.718" fill="white" transform="matrix(0.978148 -0.207912 0 1 414.456 252.497)"/>
</clipPath>
</defs>
</svg>
